<?xml version="1.0" encoding="UTF-8"?>
<svg id="Layer_1" data-name="Layer 1" xmlns="http://www.w3.org/2000/svg" viewBox="0 0 453 725">
  <defs>
    <style>
      .cls-1, .cls-2 {
        fill: #fff;
      }

      .cls-2 {
        stroke: #000;
        stroke-miterlimit: 10;
      }
    </style>
  </defs>
  <g>
    <path class="cls-1" d="M92.27,172.5c-5.4,0-9.79-4.39-9.79-9.79s4.39-9.79,9.79-9.79h267.29c5.4,0,9.79,4.39,9.79,9.79s-4.39,9.79-9.79,9.79H92.27Z"/>
    <path d="M359.57,153.43c5.12,0,9.29,4.17,9.29,9.29s-4.17,9.29-9.29,9.29H92.27c-5.12,0-9.29-4.17-9.29-9.29s4.17-9.29,9.29-9.29h267.29M359.57,152.43H92.27c-5.68,0-10.29,4.61-10.29,10.29s4.61,10.29,10.29,10.29h267.29c5.68,0,10.29-4.61,10.29-10.29s-4.61-10.29-10.29-10.29h0Z"/>
  </g>
  <g>
    <path class="cls-1" d="M92.27,141.64c-5.4,0-9.79-4.39-9.79-9.79s4.39-9.79,9.79-9.79h267.29c5.4,0,9.79,4.39,9.79,9.79s-4.39,9.79-9.79,9.79H92.27Z"/>
    <path d="M359.57,122.57c5.12,0,9.29,4.17,9.29,9.29s-4.17,9.29-9.29,9.29H92.27c-5.12,0-9.29-4.17-9.29-9.29s4.17-9.29,9.29-9.29h267.29M359.57,121.57H92.27c-5.68,0-10.29,4.61-10.29,10.29s4.61,10.29,10.29,10.29h267.29c5.68,0,10.29-4.61,10.29-10.29s-4.61-10.29-10.29-10.29h0Z"/>
  </g>
  <g>
    <path class="cls-1" d="M115.99,110.79c-5.4,0-9.79-4.39-9.79-9.79s4.39-9.79,9.79-9.79h219.87c5.4,0,9.79,4.39,9.79,9.79s-4.39,9.79-9.79,9.79H115.99Z"/>
    <path d="M335.85,91.71c5.12,0,9.29,4.17,9.29,9.29s-4.17,9.29-9.29,9.29H115.99c-5.12,0-9.29-4.17-9.29-9.29s4.17-9.29,9.29-9.29h219.87M335.85,90.71H115.99c-5.68,0-10.29,4.61-10.29,10.29s4.61,10.29,10.29,10.29h219.87c5.68,0,10.29-4.61,10.29-10.29s-4.61-10.29-10.29-10.29h0Z"/>
  </g>
  <g>
    <path class="cls-1" d="M144.66,79.93c-5.4,0-9.79-4.39-9.79-9.79s4.39-9.79,9.79-9.79h162.52c5.4,0,9.79,4.39,9.79,9.79s-4.39,9.79-9.79,9.79h-162.52Z"/>
    <path d="M307.18,60.86c5.12,0,9.29,4.17,9.29,9.29s-4.17,9.29-9.29,9.29h-162.52c-5.12,0-9.29-4.17-9.29-9.29s4.17-9.29,9.29-9.29h162.52M307.18,59.86h-162.52c-5.68,0-10.29,4.61-10.29,10.29h0c0,5.68,4.61,10.29,10.29,10.29h162.52c5.68,0,10.29-4.61,10.29-10.29h0c0-5.68-4.6-10.29-10.29-10.29h0Z"/>
  </g>
  <g>
    <path class="cls-1" d="M226.91,724.5c-30.03,0-59.64-7.11-88.01-21.14-26.53-13.12-50.75-31.6-71.99-54.95-20.33-22.34-37.13-48.64-48.59-76.04C6.66,544.48.5,515.31.5,488c0-53.71,23.03-104.37,64.86-142.67,11.79-10.8,18.29-24.75,18.29-39.27v-57.86c0-30.71,29.01-55.7,64.66-55.7h157.21c35.66,0,64.66,24.99,64.66,55.7v58.61c0,14.44,6.43,28.32,18.1,39.1,41.41,38.22,64.21,88.68,64.21,142.09,0,27.32-6.12,56.5-17.7,84.37-11.39,27.42-28.09,53.71-48.31,76.04-21.14,23.35-45.26,41.84-71.71,54.95-28.29,14.02-57.85,21.14-87.88,21.14Z"/>
    <path d="M305.52,193c35.38,0,64.16,24.76,64.16,55.2v58.61c0,14.58,6.49,28.59,18.26,39.46,41.31,38.13,64.05,88.46,64.05,141.72,0,27.26-6.11,56.37-17.66,84.18-11.37,27.36-28.04,53.61-48.22,75.9-21.1,23.31-45.17,41.76-71.56,54.84-28.22,13.99-57.71,21.08-87.66,21.08s-59.49-7.09-87.79-21.08c-26.47-13.09-50.64-31.54-71.84-54.84-20.29-22.3-37.06-48.55-48.5-75.9-11.64-27.82-17.79-56.93-17.79-84.18,0-53.57,22.98-104.1,64.69-142.3,11.9-10.9,18.45-24.97,18.45-39.64v-57.86c0-30.44,28.78-55.2,64.16-55.2h157.21M305.52,192h-157.21c-35.99,0-65.16,25.16-65.16,56.2v57.86c0,14.5-6.6,28.35-18.13,38.9C24.81,381.78,0,432.28,0,488c0,112.67,101.82,237,226.91,237s226.09-124.33,226.09-237c0-55.43-24.54-105.69-64.38-142.46-11.41-10.53-17.94-24.31-17.94-38.73v-58.61c0-31.04-29.17-56.2-65.16-56.2h0Z"/>
  </g>
  <g>
    <path class="cls-1" d="M174.43,49.07c-6.3,0-11.43-4.39-11.43-9.79s5.13-9.79,11.43-9.79h19.62l-.13-.61c-.08-.37-.12-.71-.12-1.03,0-15.09,14.34-27.36,31.96-27.36s31.96,12.28,31.96,27.36c0,.32-.04.65-.12,1.03l-.13.61h19.95c6.3,0,11.42,4.39,11.42,9.79s-5.12,9.79-11.42,9.79h-102.99Z"/>
    <path d="M225.75,1c17.35,0,31.46,12.05,31.46,26.86,0,.28-.04.58-.11.92l-.27,1.21h20.57c6.02,0,10.93,4.17,10.93,9.29s-4.9,9.29-10.93,9.29h-102.99c-6.02,0-10.93-4.17-10.93-9.29s4.9-9.29,10.93-9.29h20.24l-.27-1.21c-.07-.34-.11-.64-.11-.92,0-14.81,14.11-26.86,31.46-26.86M225.75,0c-17.93,0-32.46,12.48-32.46,27.86,0,.39.05.77.13,1.14h-19c-6.59,0-11.93,4.61-11.93,10.29h0c0,5.68,5.34,10.29,11.93,10.29h102.99c6.59,0,11.93-4.61,11.93-10.29h0c0-5.68-5.34-10.29-11.93-10.29h-19.33c.08-.37.13-.75.13-1.14,0-15.39-14.53-27.86-32.46-27.86h0Z"/>
  </g>
  <path class="cls-2" d="M450.68,447.36c-16.2,16.95-69.57,68.3-148.14,73.09-6.69.41-13.97.85-23.78,0-59.74-5.19-75.21-46.48-126.19-73.09-24.96-13.03-66.55-26.78-138.99-28.36"/>
</svg>