<?xml version="1.0" encoding="UTF-8"?>
<svg id="Layer_1" data-name="Layer 1" xmlns="http://www.w3.org/2000/svg" viewBox="0 0 460 729">
  <defs>
    <style>
      .cls-1, .cls-2, .cls-3 {
        fill: none;
        stroke-miterlimit: 10;
      }

      .cls-1, .cls-3 {
        stroke: #000;
      }

      .cls-4 {
        fill: #fff;
      }

      .cls-2 {
        stroke: #fff;
      }

      .cls-5 {
        fill: #333;
      }

      .cls-6 {
        fill: #fbb03b;
      }

      .cls-3 {
        stroke-width: 7px;
      }
    </style>
  </defs>
  <g>
    <g>
      <path class="cls-4" d="M451.97,447.73l-389.79-25.3c-10.57-1.08-22.1-1.85-34.74-2.26l-10.36-.67-.25-.1c11.19-27.99,28.98-53.15,51.69-73.94,11.52-10.55,18.13-24.4,18.13-38.9v-57.86c0-31.04,29.17-56.2,65.16-56.2h157.21c35.99,0,65.16,25.16,65.16,56.2v58.61c0,14.42,6.53,28.2,17.94,38.73,29.81,27.51,51.05,62.57,59.85,101.69Z"/>
      <path class="cls-4" d="M62.18,422.43l-34.74-2.26c12.64.41,24.17,1.18,34.74,2.26Z"/>
      <path class="cls-6" d="M62.18,422.43c46.5,4.7,74.17,15.14,93.9,25.44,50.98,26.61,66.45,67.9,126.19,73.09,9.81.85,17.08.41,23.77,0,78.57-4.8,129.76-56.01,145.96-72.96h.03c2.93,13.08,4.47,26.63,4.47,40.5,0,112.67-100.99,237-226.09,237S3.5,601.17,3.5,488.5c0-24.25,4.7-47.52,13.33-69.1l.25.1,10.36.67,34.74,2.26Z"/>
      <path class="cls-4" d="M156.08,447.87c-19.73-10.3-47.4-20.74-93.9-25.44l389.79,25.3c.03.09.05.18.06.26h-.03c-16.2,16.96-67.39,68.17-145.96,72.97-6.69.41-13.96.85-23.77,0-59.74-5.19-75.21-46.48-126.19-73.09Z"/>
      <path class="cls-5" d="M363.07,122.07c5.68,0,10.28,4.61,10.28,10.29,0,2.84-1.15,5.41-3.01,7.27s-4.43,3.01-7.27,3.01H95.77c-5.68,0-10.28-4.6-10.28-10.28,0-2.84,1.15-5.41,3.01-7.28,1.86-1.86,4.43-3.01,7.27-3.01h267.3Z"/>
      <path class="cls-5" d="M363.07,152.93c5.68,0,10.28,4.6,10.28,10.28,0,2.84-1.15,5.41-3.01,7.27-1.86,1.87-4.43,3.02-7.27,3.02H95.77c-5.68,0-10.28-4.61-10.28-10.29,0-2.84,1.15-5.41,3.01-7.27s4.43-3.01,7.27-3.01h267.3Z"/>
      <path class="cls-5" d="M339.35,91.21c5.69,0,10.29,4.61,10.29,10.29,0,2.84-1.15,5.41-3.01,7.28-1.86,1.86-4.43,3.01-7.28,3.01H119.49c-5.68,0-10.29-4.61-10.29-10.29,0-2.84,1.15-5.41,3.02-7.28s4.43-3.01,7.27-3.01h219.86Z"/>
      <path class="cls-5" d="M310.68,60.36c5.68,0,10.28,4.6,10.28,10.28,0,2.84-1.15,5.41-3.01,7.28-1.86,1.86-4.43,3.01-7.27,3.01h-162.52c-5.68,0-10.28-4.61-10.28-10.29,0-2.84,1.15-5.41,3.01-7.27s4.43-3.01,7.27-3.01h162.52Z"/>
      <path class="cls-5" d="M289.35,32.52c2.15,1.86,3.49,4.43,3.49,7.27,0,5.68-5.34,10.28-11.93,10.28h-102.98c-3.29,0-6.28-1.15-8.44-3.01-2.15-1.86-3.49-4.43-3.49-7.27,0-5.68,5.34-10.29,11.93-10.29h18.99c-.08-.37-.13-.75-.13-1.14,0-15.38,14.54-27.86,32.46-27.86s32.47,12.48,32.47,27.86c0,.39-.05.77-.13,1.14h19.32c3.29,0,6.28,1.15,8.44,3.02Z"/>
    </g>
    <g>
      <path class="cls-1" d="M95.77,152.93h267.3c5.68,0,10.28,4.6,10.28,10.28,0,2.84-1.15,5.41-3.01,7.27-1.86,1.87-4.43,3.02-7.27,3.02H95.77c-5.68,0-10.28-4.61-10.28-10.29,0-2.84,1.15-5.41,3.01-7.27s4.43-3.01,7.27-3.01Z"/>
      <path class="cls-1" d="M95.77,122.07h267.3c5.68,0,10.28,4.61,10.28,10.29,0,2.84-1.15,5.41-3.01,7.27s-4.43,3.01-7.27,3.01H95.77c-5.68,0-10.28-4.6-10.28-10.28,0-2.84,1.15-5.41,3.01-7.28,1.86-1.86,4.43-3.01,7.27-3.01Z"/>
      <path class="cls-1" d="M119.49,91.21h219.86c5.69,0,10.29,4.61,10.29,10.29,0,2.84-1.15,5.41-3.01,7.28-1.86,1.86-4.43,3.01-7.28,3.01H119.49c-5.68,0-10.29-4.61-10.29-10.29,0-2.84,1.15-5.41,3.02-7.28s4.43-3.01,7.27-3.01Z"/>
      <path class="cls-1" d="M148.16,60.36h162.52c5.68,0,10.28,4.6,10.28,10.28,0,2.84-1.15,5.41-3.01,7.28-1.86,1.86-4.43,3.01-7.27,3.01h-162.52c-5.68,0-10.28-4.61-10.28-10.29,0-2.84,1.15-5.41,3.01-7.27s4.43-3.01,7.27-3.01Z"/>
      <path class="cls-3" d="M451.97,447.73c-8.8-39.12-30.04-74.18-59.85-101.69-11.41-10.53-17.94-24.31-17.94-38.73v-58.61c0-31.04-29.17-56.2-65.16-56.2h-157.21c-35.99,0-65.16,25.16-65.16,56.2v57.86c0,14.5-6.61,28.35-18.13,38.9-22.71,20.79-40.5,45.95-51.69,73.94-8.63,21.58-13.33,44.85-13.33,69.1,0,112.67,101.82,237,226.91,237s226.09-124.33,226.09-237c0-13.87-1.54-27.42-4.47-40.51"/>
      <path class="cls-1" d="M177.93,50.07h102.98c6.59,0,11.93-4.6,11.93-10.28,0-2.84-1.34-5.41-3.49-7.27-2.16-1.87-5.15-3.02-8.44-3.02h-19.32c.08-.37.13-.75.13-1.14,0-15.38-14.54-27.86-32.47-27.86s-32.46,12.48-32.46,27.86c0,.39.05.77.13,1.14h-18.99c-6.59,0-11.93,4.61-11.93,10.29,0,2.84,1.34,5.41,3.49,7.27,2.16,1.86,5.15,3.01,8.44,3.01Z"/>
      <path class="cls-2" d="M452,448c-16.2,16.95-67.39,68.16-145.96,72.96-6.69.41-13.96.85-23.77,0-59.74-5.19-75.21-46.48-126.19-73.09-19.73-10.3-47.4-20.74-93.9-25.44-10.57-1.08-22.1-1.85-34.74-2.26-2.11-.06-4.26-.12-6.44-.17"/>
    </g>
  </g>
  <circle class="cls-6" cx="156.5" cy="345.5" r="15"/>
  <circle class="cls-6" cx="206" cy="296" r="20.5"/>
  <circle class="cls-6" cx="293" cy="326" r="14.5"/>
  <circle class="cls-6" cx="240" cy="383" r="19.5"/>
  <circle class="cls-6" cx="317.5" cy="410.5" r="16"/>
  <circle class="cls-4" cx="172" cy="526" r="22.5"/>
  <circle class="cls-4" cx="82.5" cy="546.5" r="15"/>
  <circle class="cls-4" cx="145.5" cy="616.5" r="19"/>
  <circle class="cls-4" cx="244.5" cy="574.5" r="15"/>
  <circle class="cls-4" cx="276" cy="646" r="22.5"/>
  <circle class="cls-4" cx="333.5" cy="593.5" r="19"/>
</svg>